<svg width="14" height="14" viewBox="0 0 14 14" fill="none" xmlns="http://www.w3.org/2000/svg">
<g id="Iconly/Bold/Star">
<g id="Star">
<path id="Star_2" d="M10.4523 8.3535C10.3012 8.49991 10.2318 8.71166 10.2662 8.91933L10.7848 11.7893C10.8285 12.0326 10.7259 12.2787 10.5223 12.4193C10.3228 12.5652 10.0574 12.5827 9.83977 12.466L7.25619 11.1185C7.16635 11.0707 7.0666 11.045 6.96452 11.0421H6.80644C6.7516 11.0502 6.69794 11.0677 6.64894 11.0946L4.06477 12.4485C3.93702 12.5127 3.79235 12.5354 3.6506 12.5127C3.30527 12.4473 3.07485 12.1183 3.13144 11.7712L3.6506 8.90125C3.68502 8.69183 3.6156 8.47891 3.46452 8.33016L1.3581 6.2885C1.18194 6.11758 1.12069 5.86091 1.20119 5.62933C1.27935 5.39833 1.47885 5.22975 1.71977 5.19183L4.61894 4.77125C4.83944 4.7485 5.0331 4.61433 5.13227 4.416L6.40977 1.79683C6.4401 1.7385 6.47919 1.68483 6.52644 1.63933L6.57894 1.5985C6.60635 1.56816 6.63785 1.54308 6.67285 1.52266L6.73644 1.49933L6.8356 1.4585H7.08119C7.30052 1.48125 7.4936 1.6125 7.59452 1.8085L8.88894 4.416C8.98227 4.60675 9.16369 4.73916 9.3731 4.77125L12.2723 5.19183C12.5173 5.22683 12.722 5.396 12.8031 5.62933C12.8795 5.86325 12.8136 6.11991 12.6339 6.2885L10.4523 8.3535Z" fill="#255D88"/>
</g>
</g>
</svg>
